<?xml version="1.0"?>
<svg xmlns="http://www.w3.org/2000/svg" id="Layer_3" enable-background="new 0 0 64 64" height="512px" viewBox="0 0 64 64" width="512px" class=""><g><path d="m14.197 35.5h3.606v2h-3.606z" transform="matrix(.555 -.832 .832 .555 -23.245 29.566)" data-original="#000000" class="active-path" data-old_color="#000000" fill="#FFFFFF"/><path d="m19 36.697h2v3.606h-2z" transform="matrix(.832 -.555 .555 .832 -17.997 17.56)" data-original="#000000" class="active-path" data-old_color="#000000" fill="#FFFFFF"/><path d="m11.5 37.5h1.999v5h-1.999z" transform="matrix(.8 -.6 .6 .8 -21.5 15.5)" data-original="#000000" class="active-path" data-old_color="#000000" fill="#FFFFFF"/><path d="m17.95 41.5h5.099v2h-5.099z" transform="matrix(.981 -.196 .196 .981 -7.937 4.846)" data-original="#000000" class="active-path" data-old_color="#000000" fill="#FFFFFF"/><path d="m6 42h4v2h-4z" data-original="#000000" class="active-path" data-old_color="#000000" fill="#FFFFFF"/><path d="m11.697 44h3.606v2h-3.606z" transform="matrix(.832 -.555 .555 .832 -22.694 15.046)" data-original="#000000" class="active-path" data-old_color="#000000" fill="#FFFFFF"/><path d="m25 38.764h2v4.472h-2z" transform="matrix(.894 -.447 .447 .894 -15.591 15.956)" data-original="#000000" class="active-path" data-old_color="#000000" fill="#FFFFFF"/><path d="m17 57v2c6.617 0 12-5.383 12-12h-2c0 5.514-4.486 10-10 10z" data-original="#000000" class="active-path" data-old_color="#000000" fill="#FFFFFF"/><path d="m47 31c-6.882 0-12.746 4.376-15 10.485-2.254-6.109-8.118-10.485-15-10.485-8.822 0-16 7.178-16 16s7.178 16 16 16c6.882 0 12.746-4.376 15-10.485 2.254 6.109 8.118 10.485 15 10.485 8.822 0 16-7.178 16-16s-7.178-16-16-16zm-30 30c-7.72 0-14-6.28-14-14s6.28-14 14-14 14 6.28 14 14-6.28 14-14 14zm30 0c-7.72 0-14-6.28-14-14s6.28-14 14-14 14 6.28 14 14-6.28 14-14 14z" data-original="#000000" class="active-path" data-old_color="#000000" fill="#FFFFFF"/><path d="m44.197 35.5h3.606v2h-3.606z" transform="matrix(.555 -.832 .832 .555 -9.886 54.528)" data-original="#000000" class="active-path" data-old_color="#000000" fill="#FFFFFF"/><path d="m49 36.697h2v3.606h-2z" transform="matrix(.832 -.555 .555 .832 -12.959 34.201)" data-original="#000000" class="active-path" data-old_color="#000000" fill="#FFFFFF"/><path d="m41.5 37.5h1.999v5h-1.999z" transform="matrix(.8 -.6 .6 .8 -15.5 33.5)" data-original="#000000" class="active-path" data-old_color="#000000" fill="#FFFFFF"/><path d="m47.95 41.5h5.099v2h-5.099z" transform="matrix(.981 -.196 .196 .981 -7.354 10.729)" data-original="#000000" class="active-path" data-old_color="#000000" fill="#FFFFFF"/><path d="m36 42h4v2h-4z" data-original="#000000" class="active-path" data-old_color="#000000" fill="#FFFFFF"/><path d="m41.697 44h3.606v2h-3.606z" transform="matrix(.832 -.555 .555 .832 -17.656 31.687)" data-original="#000000" class="active-path" data-old_color="#000000" fill="#FFFFFF"/><path d="m55 38.764h2v4.472h-2z" transform="matrix(.894 -.447 .447 .894 -12.424 29.372)" data-original="#000000" class="active-path" data-old_color="#000000" fill="#FFFFFF"/><path d="m57 47c0 5.514-4.486 10-10 10v2c6.617 0 12-5.383 12-12z" data-original="#000000" class="active-path" data-old_color="#000000" fill="#FFFFFF"/><path d="m32 33c8.822 0 16-7.178 16-16s-7.178-16-16-16c-8.547 0-15.529 6.742-15.959 15.183-.013.273-.041.541-.041.817 0 8.822 7.178 16 16 16zm0-30c4.745 0 8.94 2.378 11.473 6h-1.473c-1.654 0-3 1.346-3 3v4c0 .552-.449 1-1 1s-1-.448-1-1v-4c0-1.654-1.346-3-3-3s-3 1.346-3 3c0 .552-.449 1-1 1s-1-.448-1-1c0-1.654-1.346-3-3-3h-2c-1.561 0-3.015.456-4.247 1.233 2.389-4.308 6.981-7.233 12.247-7.233zm-13.969 13.387c.308-3.022 2.867-5.387 5.969-5.387h2c.551 0 1 .448 1 1 0 1.654 1.346 3 3 3s3-1.346 3-3c0-.552.449-1 1-1s1 .448 1 1v4c0 1.654 1.346 3 3 3s3-1.346 3-3v-4c0-.552.449-1 1-1h2.63c.869 1.822 1.37 3.851 1.37 6 0 7.72-6.28 14-14 14s-14-6.28-14-14c0-.207.022-.408.031-.613z" data-original="#000000" class="active-path" data-old_color="#000000" fill="#FFFFFF"/><path d="m44 17h-2c0 5.514-4.486 10-10 10v2c6.617 0 12-5.383 12-12z" data-original="#000000" class="active-path" data-old_color="#000000" fill="#FFFFFF"/><path d="m31 5h2v2h-2z" data-original="#000000" class="active-path" data-old_color="#000000" fill="#FFFFFF"/><path d="m37 7h2v2h-2z" data-original="#000000" class="active-path" data-old_color="#000000" fill="#FFFFFF"/></g> </svg>
