<?xml version="1.0"?>
<svg xmlns="http://www.w3.org/2000/svg" id="lottery_x5F_ticket" enable-background="new 0 0 300 300" height="512px" viewBox="0 0 300 300" width="512px"><g><path d="m269.271 125.062-20.782-16.636c.016-.147.086-.275.086-.426v-32.268c0-2.209-1.791-4-4-4h-192c-2.209 0-4 1.791-4 4v64.268 128c0 2.209 1.791 4 4 4h136 56c2.209 0 4-1.791 4-4v-28c0-.291-.107-.548-.166-.821l.551-.765c7.6-10.555 11.615-23.006 11.615-36.006v-60.083l9.318-11.64c1.382-1.724 1.103-4.242-.622-5.623zm-212.695-45.33h184v22.528c-1.675-.924-3.793-.617-5.031.927l-26.372 32.941c-.216-.036-.411-.128-.636-.128h-151.961zm142.112 69.493c-1.885-.783-3.947-1.225-6.112-1.225-8.822 0-16 7.178-16 16v13.113c-.215.175-.456.307-.637.532l-14.123 17.641c-.005.006-.005.014-.01.02-.286.361-.483.781-.631 1.224-.039.115-.073.225-.101.343-.024.102-.072.194-.088.299l-.441 2.83h-39.969v-56h82.296zm-18.45 65.931c.157.125.345.166.513.264l2.925 4.538c-.209.049-.422.038-.627.124l-18.742 7.738 3.249-20.849c.389-.342.704-.749.936-1.217zm-24.562 16.087-2.1 2.1-8.172-8.172c-1.562-1.562-4.094-1.562-5.656 0s-1.562 4.094 0 5.656l8.172 8.173-8.172 8.172c-1.562 1.562-1.562 4.094 0 5.656.781.781 1.805 1.172 2.828 1.172s2.047-.391 2.828-1.172l8.172-8.172 8.172 8.172c.781.781 1.805 1.172 2.828 1.172s2.047-.391 2.828-1.172c1.562-1.562 1.562-4.094 0-5.656l-8.172-8.172.951-.951c.201-.048.409-.039.604-.12l23.789-9.823v11.894 24h-64v-56h38.722zm14.886-34.081 6.013-7.511v12.325zm-113.986-53.162h56v56h-56zm0 64h56v56h-56zm136 56v-20h48v20zm60-61.592c0 11.312-3.496 22.146-10.107 31.33l-1.629 2.262h-48.264v-15.822c0-.479-.115-.941-.28-1.386-.049-.131-.108-.248-.17-.372-.067-.135-.105-.281-.187-.408l-5.441-8.443c-1.258-1.951-1.922-4.209-1.922-6.529v-39.04c0-4.412 3.588-8 8-8s8 3.588 8 8v20c0 .621.145 1.234.422 1.789 3.014 6.027 7.121 7.51 10.037 7.689 9.701.602 19.1-12.604 20.699-15.023l20.842-26.797zm2.578-66.112c-.666.256-1.279.658-1.736 1.249l-28.17 36.236c-3.246 4.869-9.881 11.947-13.717 11.713-1.031-.064-2.023-.904-2.955-2.5v-18.994c0-3.759-1.357-7.174-3.535-9.907l34.25-42.782 21.857 17.498z" data-original="#000000" class="active-path" data-old_color="#000000" fill="#0172D0"/><path d="m194.576 56c7.719 0 14-6.281 14-14s-6.281-14-14-14-14 6.281-14 14 6.281 14 14 14zm0-20c3.309 0 6 2.691 6 6s-2.691 6-6 6-6-2.691-6-6 2.691-6 6-6z" data-original="#000000" class="active-path" data-old_color="#000000" fill="#0172D0"/><path d="m258.576 58.529c2.501 0 4.53-2.028 4.53-4.529 0-2.502-2.028-4.53-4.53-4.53s-4.53 2.028-4.53 4.53c0 2.501 2.028 4.529 4.53 4.529z" data-original="#000000" class="active-path" data-old_color="#000000" fill="#0172D0"/><path d="m34.576 225.47c-2.501 0-4.53 2.028-4.53 4.53 0 2.501 2.028 4.529 4.53 4.529s4.53-2.028 4.53-4.529c-.001-2.502-2.029-4.53-4.53-4.53z" data-original="#000000" class="active-path" data-old_color="#000000" fill="#0172D0"/><path d="m90.576 46.529c2.501 0 4.53-2.028 4.53-4.529 0-2.502-2.028-4.53-4.53-4.53s-4.53 2.028-4.53 4.53c0 2.501 2.028 4.529 4.53 4.529z" data-original="#000000" class="active-path" data-old_color="#000000" fill="#0172D0"/><path d="m50.752 50.52-4.52-4.52 4.52-4.52c1.562-1.562 1.562-4.094 0-5.656s-4.094-1.562-5.656 0l-4.52 4.52-4.52-4.52c-1.562-1.562-4.094-1.562-5.656 0s-1.562 4.094 0 5.656l4.52 4.52-4.52 4.52c-1.562 1.562-1.562 4.094 0 5.656.781.781 1.805 1.172 2.828 1.172s2.047-.391 2.828-1.172l4.52-4.52 4.52 4.52c.781.781 1.805 1.172 2.828 1.172s2.047-.391 2.828-1.172c1.562-1.563 1.562-4.094 0-5.656z" data-original="#000000" class="active-path" data-old_color="#000000" fill="#0172D0"/><path d="m205.709 108c0-2.209-1.791-4-4-4h-105.133c-2.209 0-4 1.791-4 4s1.791 4 4 4h105.133c2.209 0 4-1.791 4-4z" data-original="#000000" class="active-path" data-old_color="#000000" fill="#0172D0"/><path d="m87.232 171 8.172-8.172c1.562-1.562 1.562-4.094 0-5.656s-4.094-1.562-5.656 0l-8.172 8.172-8.172-8.172c-1.562-1.562-4.094-1.562-5.656 0s-1.562 4.094 0 5.656l8.172 8.172-8.172 8.172c-1.562 1.562-1.562 4.094 0 5.656.781.781 1.805 1.172 2.828 1.172s2.047-.391 2.828-1.172l8.172-8.172 8.172 8.172c.781.781 1.805 1.172 2.828 1.172s2.047-.391 2.828-1.172c1.562-1.562 1.562-4.094 0-5.656z" data-original="#000000" class="active-path" data-old_color="#000000" fill="#0172D0"/></g> </svg>
