<?xml version="1.0"?>
<svg xmlns="http://www.w3.org/2000/svg" viewBox="0 0 64 64" width="512px" height="512px" class=""><g><g id="outline"><path d="M47.873,16.127a15.981,15.981,0,0,0-31.746,0,15.981,15.981,0,0,0,0,31.746,15.981,15.981,0,0,0,31.746,0,15.981,15.981,0,0,0,0-31.746Zm-.984,29.827a1,1,0,0,0-.935.935,13.981,13.981,0,0,1-27.908,0,1,1,0,0,0-.935-.935,13.981,13.981,0,0,1,0-27.908,1,1,0,0,0,.935-.935,13.981,13.981,0,0,1,27.908,0,1,1,0,0,0,.935.935,13.981,13.981,0,0,1,0,27.908Z" data-original="#000000" class="active-path" data-old_color="#000000" fill="#0172D0"/><path d="M46,20a11.741,11.741,0,0,0-2.21.21A11.741,11.741,0,0,0,44,18a12,12,0,0,0-24,0,11.741,11.741,0,0,0,.21,2.21A11.741,11.741,0,0,0,18,20a12,12,0,0,0,0,24,11.741,11.741,0,0,0,2.21-.21A11.741,11.741,0,0,0,20,46a12,12,0,0,0,24,0,11.741,11.741,0,0,0-.21-2.21A11.741,11.741,0,0,0,46,44a12,12,0,0,0,0-24Zm0,22a9.988,9.988,0,0,1-3.294-.567,1,1,0,0,0-1.273,1.273,10,10,0,1,1-18.866,0,1,1,0,0,0-.943-1.33.988.988,0,0,0-.33.057,10,10,0,1,1,0-18.866,1,1,0,0,0,1.273-1.273,10,10,0,1,1,18.866,0,1,1,0,0,0,1.273,1.273A10,10,0,1,1,46,42Z" data-original="#000000" class="active-path" data-old_color="#000000" fill="#0172D0"/><path d="M36.331,27.669a1,1,0,0,0-1.037-.236,9.889,9.889,0,0,1-6.588,0,1,1,0,0,0-1.273,1.273,9.852,9.852,0,0,1,0,6.588,1,1,0,0,0,1.273,1.273,9.889,9.889,0,0,1,6.588,0,.988.988,0,0,0,.33.057,1,1,0,0,0,.943-1.33,9.852,9.852,0,0,1,0-6.588A1,1,0,0,0,36.331,27.669ZM34.21,34.21a11.734,11.734,0,0,0-4.42,0,11.734,11.734,0,0,0,0-4.42,11.775,11.775,0,0,0,4.42,0,11.734,11.734,0,0,0,0,4.42Z" data-original="#000000" class="active-path" data-old_color="#000000" fill="#0172D0"/><path d="M29,23a3.941,3.941,0,0,0,2-.562V26h2V22.438A3.941,3.941,0,0,0,35,23a4,4,0,0,0,.85-7.909,4,4,0,1,0-7.7,0A4,4,0,0,0,29,23Zm0-6a2,2,0,0,1,.615.111,1,1,0,0,0,1-1.672A1.979,1.979,0,0,1,30,14a2,2,0,0,1,4,0,1.979,1.979,0,0,1-.619,1.439,1,1,0,0,0,1,1.672A1.992,1.992,0,1,1,33,19v-.638a1,1,0,1,0-2,0V19a2,2,0,1,1-2-2Z" data-original="#000000" class="active-path" data-old_color="#000000" fill="#0172D0"/><path d="M17.768,25.36a1.033,1.033,0,0,0-1.536,0l-5,6a1,1,0,0,0,0,1.28l5,6a1,1,0,0,0,1.536,0l5-6a1,1,0,0,0,0-1.28ZM17,36.438,13.3,32,17,27.562,20.7,32Z" data-original="#000000" class="active-path" data-old_color="#000000" fill="#0172D0"/><path d="M46,26.756a4.826,4.826,0,0,0-5.674.5,4.019,4.019,0,0,0-1.341,3,4.154,4.154,0,0,0,1.379,3.059L46,38.339l5.645-5.028a4.151,4.151,0,0,0,1.37-3.052,4.019,4.019,0,0,0-1.341-3A4.826,4.826,0,0,0,46,26.756Zm4.306,5.069L46,35.661l-4.3-3.828a2.119,2.119,0,0,1-.718-1.574,2.041,2.041,0,0,1,.689-1.52,2.8,2.8,0,0,1,3.652,0l.674.614.674-.614a2.8,2.8,0,0,1,3.652,0,2.041,2.041,0,0,1,.689,1.52A2.112,2.112,0,0,1,50.306,31.825Z" data-original="#000000" class="active-path" data-old_color="#000000" fill="#0172D0"/><path d="M32.665,38.253a1,1,0,0,0-1.33,0l-4.98,4.436a4.151,4.151,0,0,0-1.37,3.052,4.019,4.019,0,0,0,1.341,3A4.8,4.8,0,0,0,31,49.686V53h2V49.691a4.907,4.907,0,0,0,1.5.244,4.705,4.705,0,0,0,3.174-1.2,4.019,4.019,0,0,0,1.341-3,4.154,4.154,0,0,0-1.379-3.059Zm3.661,9.008a2.8,2.8,0,0,1-3.652,0,1,1,0,0,0-1.348,0,2.8,2.8,0,0,1-3.652,0,2.041,2.041,0,0,1-.689-1.52,2.112,2.112,0,0,1,.709-1.566L32,40.339l4.3,3.828a2.119,2.119,0,0,1,.718,1.574A2.041,2.041,0,0,1,36.326,47.261Z" data-original="#000000" class="active-path" data-old_color="#000000" fill="#0172D0"/><rect x="23" y="25" width="2" height="2" data-original="#000000" class="active-path" data-old_color="#000000" fill="#0172D0"/><rect x="39" y="38" width="2" height="2" data-original="#000000" class="active-path" data-old_color="#000000" fill="#0172D0"/></g></g> </svg>
