<?xml version="1.0"?>
<svg xmlns="http://www.w3.org/2000/svg" id="Capa_1" enable-background="new 0 0 512 512" height="512px" viewBox="0 0 512 512" width="512px" class=""><g><path id="XMLID_1351_" d="m334.09 290.595 47.919-56.861c3.559-4.223 3.021-10.532-1.202-14.091-4.224-3.56-10.532-3.021-14.091 1.202l-45.695 54.222-51.95-61.724 70.089-83.276c15.762-18.728 22.009-44.176 16.711-68.074-3.594-16.211-12.294-30.98-24.664-41.993h19.878c16.822 0 33.783 3.735 49.049 10.802 27.021 12.507 44.479 39.828 44.479 69.603 0 18.062-6.41 35.615-18.049 49.426l-1.852 2.198c-3.559 4.223-3.021 10.532 1.203 14.091 4.222 3.558 10.531 3.021 14.091-1.203l1.852-2.197c14.674-17.412 22.756-39.542 22.756-62.314 0-37.539-22.012-71.983-56.078-87.752-17.882-8.279-37.748-12.654-57.452-12.654h-95.084-95.084c-19.704 0-39.57 4.375-57.451 12.652-34.066 15.768-56.078 50.213-56.078 87.752 0 22.771 8.082 44.901 22.756 62.314l107.768 127.877-118.784 141.133c-2.604 3.094-3.088 7.453-1.227 11.042 1.861 3.591 5.704 5.709 9.732 5.36l59.914-5.138 5.344 59.896c.359 4.021 3.101 7.433 6.951 8.648.991.313 2.004.464 3.008.464 2.898 0 5.715-1.263 7.647-3.556l105.504-125.189 105.503 125.189c1.933 2.293 4.749 3.556 7.647 3.556 1.004 0 2.018-.151 3.008-.464 3.851-1.215 6.593-4.626 6.952-8.648l5.344-59.896 59.914 5.138c4.034.355 7.871-1.77 9.732-5.36 1.862-3.59 1.377-7.949-1.227-11.043zm-144.166-171.288h132.152l-66.076 78.507zm43.45-99.307h22.626 22.626c27.937 0 51.671 19.049 57.719 46.323 2.447 11.039 1.589 22.519-2.2 32.983h-156.29c-3.788-10.465-4.646-21.944-2.199-32.983 6.047-27.274 29.781-46.323 57.718-46.323zm-82.697 457.195-4.096-45.907c-.49-5.487-5.325-9.545-10.815-9.075l-45.797 3.928 101.021-120.026 51.933 61.623zm225.557-54.981c-5.498-.473-10.325 3.587-10.815 9.075l-4.096 45.907-275.886-327.366c-11.639-13.811-18.049-31.364-18.049-49.426 0-29.774 17.459-57.095 44.48-69.603 15.265-7.066 32.226-10.801 49.049-10.801h19.878c-12.37 11.013-21.07 25.782-24.665 41.994-5.298 23.898.949 49.346 16.711 68.074l249.191 296.073z" data-original="#000000" class="active-path" data-old_color="#000000" fill="#FFFFFF"/><path id="XMLID_1355_" d="m396.291 185.81c-1.86 1.86-2.93 4.44-2.93 7.07s1.07 5.21 2.93 7.07 4.44 2.93 7.07 2.93 5.21-1.07 7.07-2.93 2.93-4.44 2.93-7.07-1.07-5.21-2.93-7.07-4.44-2.93-7.07-2.93-5.211 1.07-7.07 2.93z" data-original="#000000" class="active-path" data-old_color="#000000" fill="#FFFFFF"/></g> </svg>
